<svg width="26" height="26" viewBox="0 0 26 26" fill="none" xmlns="http://www.w3.org/2000/svg">
<path opacity="0.997" fill-rule="evenodd" clip-rule="evenodd" d="M12.6445 0C12.8815 0 13.1185 0 13.3555 0C13.8116 0.143102 14.1079 0.447789 14.2441 0.914062C14.2695 4.51949 14.278 8.12495 14.2695 11.7305C17.8751 11.722 21.4805 11.7305 25.0859 11.7559C25.5522 11.8921 25.8569 12.1884 26 12.6445C26 12.8815 26 13.1185 26 13.3555C25.8569 13.8116 25.5522 14.1079 25.0859 14.2441C21.4805 14.2695 17.8751 14.278 14.2695 14.2695C14.278 17.8751 14.2695 21.4805 14.2441 25.0859C14.1079 25.5522 13.8116 25.8569 13.3555 26C13.1185 26 12.8815 26 12.6445 26C12.1884 25.8569 11.8921 25.5522 11.7559 25.0859C11.7305 21.4805 11.722 17.8751 11.7305 14.2695C8.12495 14.278 4.51949 14.2695 0.914062 14.2441C0.447789 14.1079 0.143102 13.8116 0 13.3555C0 13.1185 0 12.8815 0 12.6445C0.143102 12.1884 0.447789 11.8921 0.914062 11.7559C4.51949 11.7305 8.12495 11.722 11.7305 11.7305C11.722 8.12495 11.7305 4.51949 11.7559 0.914062C11.8921 0.447789 12.1884 0.143102 12.6445 0Z" fill="#007BFF"/>
</svg>
