<svg width="18" height="18" viewBox="0 0 18 18" fill="none" xmlns="http://www.w3.org/2000/svg">
<g clip-path="url(#clip0_34_373)">
<rect width="18" height="18" fill="#F8F9FA"/>
<path opacity="0.977" fill-rule="evenodd" clip-rule="evenodd" d="M6.31055 -0.0175781C8.09181 -0.0175781 9.87304 -0.0175781 11.6543 -0.0175781C11.8353 0.0642438 11.9467 0.204869 11.9883 0.404297C12.0059 0.849456 12.0117 1.29477 12.0059 1.74023C9.99025 1.74023 7.9746 1.74023 5.95899 1.74023C5.95312 1.29477 5.95899 0.849456 5.97657 0.404297C6.01819 0.204869 6.12953 0.0642438 6.31055 -0.0175781Z" fill="#E53935"/>
<path opacity="0.983" fill-rule="evenodd" clip-rule="evenodd" d="M2.68945 2.72461C6.88479 2.71875 11.0801 2.72461 15.2754 2.74219C15.7617 2.85352 16.0605 3.15235 16.1719 3.63867C16.1895 4.11901 16.1953 4.59946 16.1895 5.08008C11.3848 5.08008 6.58009 5.08008 1.77539 5.08008C1.76953 4.59946 1.77539 4.11901 1.79297 3.63867C1.91068 3.15186 2.20951 2.84717 2.68945 2.72461Z" fill="#E53935"/>
<path opacity="0.992" fill-rule="evenodd" clip-rule="evenodd" d="M13.6582 17.9824C10.5176 17.9824 7.37694 17.9824 4.23633 17.9824C3.89805 17.8372 3.7164 17.5793 3.69141 17.209C3.43555 13.4942 3.1836 9.77941 2.93555 6.06445C6.96681 6.06445 10.998 6.06445 15.0293 6.06445C14.7573 9.82621 14.4818 13.5879 14.2031 17.3496C14.1385 17.6659 13.9568 17.8768 13.6582 17.9824ZM7.04883 7.7168C7.31007 7.69799 7.50343 7.80346 7.62891 8.0332C7.65236 10.5058 7.65236 12.9785 7.62891 15.4512C7.47619 15.7825 7.23596 15.8704 6.9082 15.7148C6.82323 15.6564 6.75879 15.5802 6.71484 15.4863C6.69139 13.0019 6.69139 10.5176 6.71484 8.0332C6.79416 7.89152 6.90546 7.78605 7.04883 7.7168ZM10.6699 7.7168C10.9482 7.69475 11.1415 7.81193 11.25 8.06836C11.2734 10.5293 11.2734 12.9902 11.25 15.4512C11.057 15.8163 10.7874 15.8866 10.4414 15.6621C10.3557 15.561 10.3089 15.4438 10.3008 15.3105C10.2773 12.9434 10.2773 10.5762 10.3008 8.20898C10.3316 7.96978 10.4547 7.80571 10.6699 7.7168Z" fill="#E53935"/>
</g>
<defs>
<clipPath id="clip0_34_373">
<rect width="18" height="18" fill="white"/>
</clipPath>
</defs>
</svg>
