<svg width="18" height="18" viewBox="0 0 18 18" fill="none" xmlns="http://www.w3.org/2000/svg">
<g clip-path="url(#clip0_34_368)">
<rect width="18" height="18" fill="#F8F9FA"/>
<path opacity="0.964" fill-rule="evenodd" clip-rule="evenodd" d="M13.9745 0.93165C14.5376 0.849645 15.0298 0.99613 15.4511 1.3711C15.8916 1.79985 16.3193 2.23931 16.7343 2.68946C17.0316 3.1311 17.1136 3.61158 16.9804 4.13087C16.9237 4.33797 16.83 4.5255 16.6992 4.69337C14.5009 6.90333 12.2919 9.10059 10.0722 11.2852C9.11999 11.7494 8.13562 12.1361 7.11908 12.4453C6.5494 12.6783 6.05134 12.5787 5.62493 12.1465C5.44757 11.8926 5.37726 11.6113 5.414 11.3027C5.69338 10.2302 6.05669 9.18722 6.50384 8.17384C6.58586 8.04492 6.66791 7.91604 6.74993 7.78712C8.92375 5.6133 11.0976 3.43946 13.2714 1.26563C13.4908 1.11666 13.7252 1.00533 13.9745 0.93165ZM14.1503 2.09181C14.2842 2.07997 14.4131 2.09754 14.537 2.14454C14.9893 2.58501 15.4287 3.03618 15.8554 3.49806C15.8908 3.66016 15.8674 3.81253 15.7851 3.95509C15.4213 4.32472 15.0522 4.68803 14.6777 5.04493C14.08 4.47072 13.4941 3.88478 12.9199 3.28712C13.3094 2.8624 13.7195 2.46396 14.1503 2.09181ZM12.041 4.13087C12.6595 4.6908 13.2572 5.27675 13.8339 5.88868C12.5922 7.14798 11.3442 8.40186 10.0898 9.6504C9.49799 9.05862 8.90617 8.46679 8.31439 7.87501C9.56367 6.6316 10.8058 5.38356 12.041 4.13087ZM6.59173 11.3731C6.829 10.4767 7.14541 9.60951 7.54095 8.77149C8.10345 9.31054 8.65424 9.86134 9.19329 10.4238C8.35454 10.8198 7.48734 11.1362 6.59173 11.3731Z" fill="#4CAF50"/>
<path opacity="0.969" fill-rule="evenodd" clip-rule="evenodd" d="M3.35742 2.4082C4.41218 2.40235 5.46687 2.4082 6.52148 2.42578C6.78913 2.51493 6.92975 2.70242 6.94336 2.98828C6.91541 3.27933 6.76308 3.46683 6.48633 3.55078C5.4785 3.56249 4.47071 3.57423 3.46289 3.58594C2.68844 3.77448 2.22555 4.2608 2.07422 5.04492C2.05078 8.16212 2.05078 11.2793 2.07422 14.3965C2.2207 15.2461 2.71875 15.7441 3.56836 15.8906C7.00298 15.9253 10.4366 15.9136 13.8691 15.8555C14.6626 15.6008 15.0903 15.0558 15.1523 14.2207C15.1641 13.2832 15.1758 12.3457 15.1875 11.4082C15.3786 11.0359 15.6657 10.9363 16.0488 11.1094C16.1519 11.189 16.2281 11.2886 16.2773 11.4082C16.3008 12.498 16.3008 13.5879 16.2773 14.6777C15.982 16.0629 15.1324 16.8539 13.7285 17.0508C10.3184 17.0742 6.9082 17.0742 3.49805 17.0508C2.38646 16.9259 1.59544 16.3575 1.125 15.3457C1.01065 15.0758 0.940338 14.7946 0.914062 14.502C0.879602 11.2316 0.89132 7.96208 0.949218 4.69336C1.27449 3.42658 2.07723 2.66486 3.35742 2.4082Z" fill="#4CAF50"/>
</g>
<defs>
<clipPath id="clip0_34_368">
<rect width="18" height="18" fill="white"/>
</clipPath>
</defs>
</svg>
